PathFileType  4	(X/Y/Z) C:\Users\antoi\Documents\MyRepositories\mobilecap\ResultsAnalysis
DataRate	CameraRate	NumFrames	NumMarkers	Units	OrigDataRate	OrigDataStartFrame	OrigNumFrames
100.0	100.0	4	51	mm	100.0	28	216
Frame#	Time	r_knee			r_shank_antsup			r_ankle			r_calc			r_5meta			r_toe			L_knee			L_shank_antsup			L_ankle			L_calc			L_5meta			L_toe			r_sh2			r_sh3			r_sh4			L_sh2			L_sh3			r_thigh1			r_thigh2			r_thigh3			r_thigh4			r_thigh5			L_thigh1			L_thigh2			L_thigh3			L_thigh4			r.ASIS			r.PSIS			L.ASIS			L.PSIS			C7			R_Shoulder			L_Shoulder			R_Sternum			L_Sternum			R_humerus			R_elbow_med			R_elbow_lat			R_forearm			R_wrist_radius			R_wrist_ulna			L_humerus			L_elbow_med			L_elbow_lat			L_forearm			L_wrist_radius			L_wrist_ulna			R_HJC			L_HJC			R_HJC_reg			L_HJC_reg			
		X1	Y1	Z1	X2	Y2	Z2	X3	Y3	Z3	X4	Y4	Z4	X5	Y5	Z5	X6	Y6	Z6	X7	Y7	Z7	X8	Y8	Z8	X9	Y9	Z9	X10	Y10	Z10	X11	Y11	Z11	X12	Y12	Z12	X13	Y13	Z13	X14	Y14	Z14	X15	Y15	Z15	X16	Y16	Z16	X17	Y17	Z17	X18	Y18	Z18	X19	Y19	Z19	X20	Y20	Z20	X21	Y21	Z21	X22	Y22	Z22	X23	Y23	Z23	X24	Y24	Z24	X25	Y25	Z25	X26	Y26	Z26	X27	Y27	Z27	X28	Y28	Z28	X29	Y29	Z29	X30	Y30	Z30	X31	Y31	Z31	X32	Y32	Z32	X33	Y33	Z33	X34	Y34	Z34	X35	Y35	Z35	X36	Y36	Z36	X37	Y37	Z37	X38	Y38	Z38	X39	Y39	Z39	X40	Y40	Z40	X41	Y41	Z41	X42	Y42	Z42	X43	Y43	Z43	X44	Y44	Z44	X45	Y45	Z45	X46	Y46	Z46	X47	Y47	Z47	X48	Y48	Z48	X49	Y49	Z49	X50	Y50	Z50	X51	Y51	Z51	

28	0.27000000	-1050.23093	753.74764	-471.57504	-1053.01927	680.59961	-445.40353	-1181.92274	399.65052	-463.37166	-1253.45184	361.08454	-499.31893	-1081.78063	356.86082	-438.43467	-1040.55677	378.51961	-495.49387	-1040.77482	749.49628	-735.00488	-1026.11347	675.30805	-736.38332	-1171.06333	402.75181	-720.28226	-1244.74957	366.36109	-673.24255	-1081.13169	351.47626	-740.49881	-1033.06635	375.84977	-685.89422	-1091.97635	574.35665	-434.79629	-1123.74725	705.23044	-448.90528	-1170.61245	599.12220	-440.30393	-1103.73793	713.31375	-763.15106	-1143.74584	596.80365	-763.27976	-1030.86172	1066.15722	-479.85851	-1005.14464	956.74005	-478.83034	-1037.88169	926.72949	-427.25103	-1109.84229	1050.91392	-398.73298	-1093.33864	935.36831	-414.87224	-1039.93569	1039.46384	-753.44792	-1005.77725	905.57725	-745.04327	-1151.04038	1011.12238	-775.29852	-1109.07505	877.06066	-763.17820	-1043.68852	1188.44897	-475.54565	-1217.46853	1253.96431	-537.96707	-1052.92628	1181.20283	-726.04925	-1226.40726	1246.83858	-646.83050	-969.81539	1659.16594	-603.22447	-920.33934	1587.02905	-456.27228	-919.39579	1591.93253	-765.18675	-886.52353	1541.88894	-593.43385	-884.74709	1540.69854	-631.77044	-992.47408	1361.24868	-374.91941	-1077.86056	1280.58694	-420.96797	-1044.41647	1289.38586	-355.12713	-991.21831	1177.12273	-363.72577	-960.60093	1063.46125	-383.94870	-999.22150	1051.51392	-366.86897	-945.78153	1463.85809	-823.93619	-1098.56005	1300.90776	-794.06068	-1083.42853	1304.01850	-854.15914	-1042.27111	1197.34234	-864.12356	-1033.47731	1072.14111	-843.42623	-1066.96121	1067.02240	-859.28891	-1127.45842	1132.97714	-494.59810	-1132.86539	1128.93162	-694.77655	-1123.88172	1132.39460	-500.60957	-1137.39676	1121.61928	-665.21763	
29	0.28000000	-1044.66840	751.74510	-472.37798	-1048.40396	678.39949	-445.98072	-1181.58829	399.66847	-463.33050	-1253.48142	361.34679	-499.08656	-1081.66650	356.42227	-438.27756	-1040.34770	377.63515	-495.42824	-1035.50031	747.30426	-735.32175	-1021.58952	672.88315	-737.11031	-1170.97684	402.90628	-719.96162	-1244.67416	366.37756	-673.07654	-1081.05570	351.40994	-740.85146	-1032.85840	374.95199	-685.93696	-1088.97366	572.96696	-435.22023	-1118.62141	704.10302	-449.68570	-1167.36348	598.92861	-440.91462	-1098.73835	712.17153	-763.05234	-1140.62551	596.27445	-762.98130	-1030.28540	1063.94440	-479.55503	-1002.69571	954.76329	-478.64956	-1035.18558	924.28736	-427.28473	-1109.21134	1047.24126	-398.71863	-1090.93578	932.19298	-415.14977	-1039.82003	1036.80057	-753.92762	-1003.22483	903.38505	-745.90393	-1150.74344	1006.39473	-773.91547	-1106.35126	873.22654	-762.16299	-1043.37843	1183.50940	-474.87479	-1216.53718	1251.00650	-538.59672	-1052.43913	1175.39269	-725.96610	-1225.22966	1243.28298	-646.62389	-961.32467	1651.86016	-604.29561	-911.96520	1577.18997	-457.99258	-911.19688	1581.81883	-765.72014	-880.23826	1532.77560	-595.72014	-878.07969	1531.44056	-632.79808	-986.16241	1353.10063	-375.20419	-1072.74637	1273.12148	-420.62134	-1038.80729	1281.89836	-354.84822	-985.72833	1169.57279	-363.79242	-954.72447	1056.26566	-384.45202	-993.31752	1043.97104	-367.56052	-939.56968	1454.78196	-824.51690	-1094.16762	1293.87215	-796.44184	-1078.71288	1296.58752	-856.33821	-1038.58326	1189.22107	-865.72797	-1030.52712	1064.18303	-844.21572	-1064.08855	1059.26323	-859.94707	-1127.88192	1129.02328	-494.13716	-1133.03378	1124.16742	-694.30397	-1124.50440	1128.59772	-499.84346	-1137.77884	1116.80193	-664.80469	
30	0.29000000	-1039.73190	749.26815	-473.09226	-1043.52448	675.88771	-446.96735	-1181.20654	399.76468	-463.26329	-1253.64192	361.79690	-498.73089	-1081.56095	355.94418	-438.23886	-1040.11686	376.64044	-495.55369	-1030.43998	744.91847	-735.52456	-1017.11501	670.15072	-737.33679	-1170.66201	403.05516	-719.69197	-1244.60392	366.38966	-672.97378	-1080.95727	351.55462	-741.51451	-1032.74840	374.13246	-685.75982	-1085.62398	571.11683	-435.91057	-1113.44822	702.72111	-450.44475	-1163.80730	598.18208	-441.56750	-1093.71475	710.66102	-762.84436	-1137.26729	595.66736	-763.00701	-1029.43018	1061.44119	-478.94592	-999.97913	952.59190	-478.32653	-1032.54267	921.46603	-427.17294	-1108.44032	1043.44511	-398.39415	-1088.53302	928.63976	-415.73334	-1039.85068	1033.80288	-754.45595	-1000.64739	901.01352	-746.95625	-1150.66128	1002.04571	-773.53600	-1103.56985	869.12016	-760.93979	-1042.66202	1178.47474	-474.26032	-1215.22763	1247.86320	-539.15604	-1051.89017	1169.31522	-726.06523	-1223.78713	1239.62494	-646.45057	-953.17662	1644.31642	-605.53692	-903.68184	1567.11811	-459.16207	-903.33697	1571.15172	-766.33354	-873.73818	1523.37825	-597.16710	-871.86761	1522.09127	-633.77333	-979.64544	1344.14908	-375.35102	-1067.44836	1264.73358	-419.94673	-1032.87819	1273.49513	-354.38883	-979.77962	1161.25194	-363.97758	-948.22095	1048.31793	-384.99625	-986.81213	1035.69276	-368.23557	-933.32595	1444.94779	-825.27323	-1089.28849	1285.42420	-799.29332	-1073.15568	1287.81174	-858.80432	-1033.70111	1180.03287	-867.55530	-1026.46955	1055.09985	-844.78712	-1060.16131	1049.56135	-859.59628	-1127.93220	1124.96973	-493.69438	-1133.07160	1119.20799	-693.83785	-1124.76096	1124.46527	-499.12628	-1137.95577	1111.76503	-664.52793	
31	0.30000000	-1034.97710	746.43219	-474.05831	-1038.36967	673.17417	-448.15108	-1180.88557	399.77483	-463.40596	-1253.78623	362.06428	-498.61016	-1081.52636	355.52448	-438.38410	-1039.98456	375.74525	-495.83275	-1025.38429	742.21880	-735.65342	-1012.47357	667.09831	-737.16424	-1170.39426	402.92542	-719.08537	-1244.59602	366.37358	-672.87708	-1080.92923	351.58676	-742.03937	-1032.73565	373.45013	-685.52450	-1082.15513	569.01842	-436.80849	-1107.98976	701.23624	-451.23682	-1159.84881	597.23820	-442.21088	-1088.50391	708.82046	-762.48086	-1133.76093	594.73333	-762.85991	-1028.38451	1058.55431	-478.12193	-996.95277	950.17572	-477.82921	-1029.76390	918.28882	-427.04433	-1107.38370	1039.44442	-397.87708	-1085.91939	924.66849	-416.38407	-1039.73335	1030.46401	-755.17653	-997.94674	898.46915	-747.93763	-1150.39269	997.45208	-772.86295	-1100.58372	864.82469	-760.06546	-1041.48725	1173.31307	-473.69289	-1213.55681	1244.52307	-539.59183	-1050.92554	1163.15358	-726.33823	-1221.97431	1236.07625	-646.64967	-945.45818	1636.69195	-606.64395	-896.01759	1556.79801	-460.32335	-895.88778	1560.36942	-767.14057	-867.70189	1514.21308	-598.78175	-866.01225	1512.85226	-634.65554	-973.01706	1334.42993	-375.39098	-1061.89098	1255.47952	-418.90801	-1026.62358	1264.31427	-353.67456	-973.26270	1152.30540	-364.13621	-941.12090	1039.79870	-385.65759	-979.61856	1026.82015	-368.89379	-927.01270	1434.36743	-826.02047	-1083.62424	1275.49098	-802.39323	-1066.50394	1277.75579	-861.37091	-1027.47077	1169.82923	-869.37504	-1021.11977	1045.01581	-845.20148	-1054.76114	1038.97853	-859.79323	-1127.60541	1120.79376	-493.42183	-1132.71924	1114.24414	-693.54182	-1124.56136	1119.75783	-498.66970	-1137.60988	1106.66370	-664.64006	
